<svg xmlns="http://www.w3.org/2000/svg" viewBox="0 0 256 256"><path fill="#25D366" d="M128 0a128 128 0 0 0-110.7 187.7L0 256l68.7-17.4A128 128 0 1 0 128 0Z"/><path fill="#fff" d="M190.8 150.9c-3.2 9.1-15.7 16.7-25.8 18.9-6.9 1.5-15.7 2.7-45.7-9.7-38.4-15.9-63-55-64.9-57.6-2-2.7-15.5-20.7-15.5-39.6s9.6-28.1 13-32c3.2-3.6 7-4.5 9.6-4.5h6.9c2 0 5 0.7 7.6 5.7 3.2 5.4 10.9 18.9 11.8 20.3 0.9 1.4 1.8 3.2 0.4 5.9-1.4 2.7-2.1 3.6-4 5.8s-3.9 4.6-5.6 6.2c-1.8 1.8-3.6 3.7-1.5 7.1s9.1 15 19.5 24.2c13.4 12 24.7 15.7 28.1 17.4s5.6 1.5 7.7-0.9 8.9-10.4 11.3-14c2.3-3.6 4.8-3 8-1.8 3.2 1.2 20.5 9.7 24 11.5s5.9 2.7 6.8 4.1c0.8 1.3 0.8 9.4-2.4 18.5Z"/></svg>