<svg xmlns="http://www.w3.org/2000/svg" viewBox="0 0 256 256">
  <defs><linearGradient id="g" x1="0" y1="0" x2="1" y2="1"><stop offset="0" stop-color="#25D366"/><stop offset="1" stop-color="#128C7E"/></linearGradient></defs>
  <circle cx="128" cy="128" r="120" fill="url(#g)"/>
  <path fill="#fff" d="M191.7 172.2c-5.1 14.2-25 26-39.4 27.1-7.4.6-16.7 1-45.6-9.8-38.3-15-63-52.1-64.9-54.6-1.9-2.5-15.5-20.6-15.5-39.3 0-18.7 9.7-27.8 13.2-31.6 3.5-3.8 7.6-4.8 10.1-4.8 2.5 0 5.1.02 7.3.13 2.4.11 5.5-.9 8.7 6.6 3.2 7.7 10.9 26.7 11.9 28.6.97 1.9 1.6 4.2.3 6.7-1.3 2.5-1.9 4.1-3.8 6.3-1.9 2.1-4 4.7-5.7 6.3-1.9 1.9-3.8 3.9-1.6 7.5 2.2 3.6 9.8 16.2 21.1 26.2 14.5 12.9 26.7 17 30.4 18.9 3.8 1.9 6.1 1.6 8.4-.96 2.5-2.6 9.6-11.2 12.2-15 2.6-3.8 5.1-3.2 8.4-1.9 3.5 1.3 22.1 10.4 25.9 12.3 3.8 1.9 6.3 2.9 7.3 4.5 1 1.6 1 9.5-4.1 23.6z"/>
</svg>